<?xml version="1.0" standalone="no"?>
<!DOCTYPE svg PUBLIC "-//W3C//DTD SVG 20010904//EN"
 "http://www.w3.org/TR/2001/REC-SVG-20010904/DTD/svg10.dtd">
<svg version="1.0" xmlns="http://www.w3.org/2000/svg"
 width="512.000000pt" height="512.000000pt" viewBox="0 0 512.000000 512.000000"
 preserveAspectRatio="xMidYMid meet">
<metadata>
Created by potrace 1.11, written by Peter Selinger 2001-2013
</metadata>
<g transform="translate(0.000000,512.000000) scale(0.100000,-0.100000)"
fill="#000000" stroke="none">
<path d="M2300 5065 c-779 -106 -1422 -686 -1615 -1455 -53 -211 -56 -259 -54
-1119 1 -711 4 -843 24 -970 17 -105 86 -361 105 -386 4 -5 11 -21 15 -35 7
-23 85 -184 116 -240 26 -47 122 -185 163 -235 216 -265 496 -473 792 -589
l89 -34 3 654 c1 360 4 654 6 654 1 0 29 -9 60 -20 50 -17 168 -44 286 -66 19
-3 130 -8 245 -9 275 -4 434 20 665 100 710 248 1205 871 1291 1625 14 127 7
411 -14 525 -102 551 -403 1008 -862 1307 -236 154 -534 261 -825 298 -113 13
-372 11 -490 -5z m420 -1319 c241 -62 425 -268 460 -516 28 -198 -35 -385
-179 -528 -112 -112 -245 -170 -406 -177 -114 -6 -207 13 -304 61 -86 43 -97
51 -173 127 -203 204 -232 526 -70 775 89 137 256 246 414 270 73 12 186 6
258 -12z"/>
</g>
</svg>
