<?xml version="1.0" encoding="UTF-8"?>
<!DOCTYPE svg PUBLIC "-//W3C//DTD SVG 1.1//EN" "http://www.w3.org/Graphics/SVG/1.1/DTD/svg11.dtd">
<svg xmlns="http://www.w3.org/2000/svg" xmlns:xlink="http://www.w3.org/1999/xlink" version="1.1" width="24" height="24" viewBox="0 0 24 24">
  <g transform="translate(2, 4)">
    <path d="M8.5303,15.9996 C8.2763,15.9996 8.0233,15.9036 7.8283,15.7116 L0.0003,7.9996 L7.8283,0.2876 C8.2223,-0.1004 8.8553,-0.0954 9.2423,0.2976 C9.6303,0.6906 9.6263,1.3246 9.2323,1.7116 L2.8493,7.9996 L9.2323,14.2876 C9.6263,14.6746 9.6303,15.3086 9.2423,15.7016 C9.0473,15.8996 8.7893,15.9996 8.5303,15.9996" id="Fill-4"></path>
    <path d="M19.0225,8.9996 L2.0435,8.9996 C1.4915,8.9996 1.0435,8.5516 1.0435,7.9996 C1.0435,7.4476 1.4915,6.9996 2.0435,6.9996 L19.0225,6.9996 C19.5755,6.9996 20.0225,7.4476 20.0225,7.9996 C20.0225,8.5516 19.5755,8.9996 19.0225,8.9996" id="Fill-1"></path>
  </g>
</svg>
