<?xml version="1.0" encoding="UTF-8" standalone="no"?>
<svg width="104px" height="91px" viewBox="0 0 104 91" version="1.1" xmlns="http://www.w3.org/2000/svg" xmlns:xlink="http://www.w3.org/1999/xlink">
    <!-- Generator: sketchtool 41.2 (35397) - http://www.bohemiancoding.com/sketch -->
    <title>98C532A8-AF2C-46F7-86D3-1335609409D0</title>
    <desc>Created with sketchtool.</desc>
    <defs>
        <polygon id="path-1" points="52.00025 90.6665 104 90.6665 104 -0.0005 52.00025 -0.0005 0.0005 -0.0005 0.0005 90.6665 52.00025 90.6665"></polygon>
    </defs>
    <g id="9-desktop" stroke="none" stroke-width="1" fill="none" fill-rule="evenodd">
        <g id="9.1-desktop_login" transform="translate(-668.000000, -328.000000)">
            <g id="browser_icon" transform="translate(668.000000, 328.000000)">
                <path d="M10.1519,12.7661 C10.2019,12.8861 10.2619,13.0061 10.3419,13.1061 C10.4119,13.2161 10.4919,13.3261 10.5819,13.4161 C10.9619,13.7861 11.4719,13.9961 12.0019,13.9961 C12.1319,13.9961 12.2619,13.9861 12.3919,13.9561 C12.5219,13.9361 12.6419,13.8961 12.7619,13.8461 C12.8819,13.7961 13.0019,13.7361 13.1119,13.6661 C13.2219,13.5861 13.3219,13.5061 13.4119,13.4161 C13.5019,13.3261 13.5919,13.2161 13.6619,13.1061 C13.7319,13.0061 13.8019,12.8861 13.8419,12.7661 C13.8919,12.6461 13.9319,12.5161 13.9619,12.3861 C13.9819,12.2661 14.0019,12.1261 14.0019,11.9961 C14.0019,11.4761 13.7819,10.9561 13.4119,10.5861 C12.6719,9.8361 11.3219,9.8461 10.5819,10.5861 C10.2119,10.9561 10.0019,11.4761 10.0019,11.9961 C10.0019,12.1261 10.0119,12.2661 10.0419,12.3861 C10.0619,12.5161 10.1019,12.6461 10.1519,12.7661" id="Fill-1" fill="#2AB0C9"></path>
                <path d="M22.0015,13.996 C22.5315,13.996 23.0415,13.786 23.4115,13.416 C23.5115,13.326 23.5915,13.216 23.6615,13.106 C23.7315,13.006 23.8015,12.886 23.8515,12.766 C23.9015,12.646 23.9315,12.516 23.9615,12.386 C23.9915,12.266 24.0015,12.126 24.0015,11.996 C24.0015,11.866 23.9915,11.736 23.9615,11.606 C23.9315,11.486 23.9015,11.356 23.8515,11.236 C23.8015,11.116 23.7315,10.996 23.6615,10.886 C23.5915,10.776 23.5115,10.676 23.4115,10.586 C22.6715,9.846 21.3315,9.846 20.5815,10.586 C20.2115,10.956 20.0015,11.476 20.0015,11.996 C20.0015,12.526 20.2115,13.046 20.5815,13.416 C20.9615,13.786 21.4715,13.996 22.0015,13.996" id="Fill-3" fill="#2AB0C9"></path>
                <path d="M30.1519,12.7661 C30.2019,12.8861 30.2619,13.0061 30.3319,13.1061 C30.4119,13.2161 30.4919,13.3261 30.5819,13.4161 C30.9619,13.7861 31.4719,13.9961 32.0019,13.9961 C32.5319,13.9961 33.0419,13.7861 33.4119,13.4161 C33.5019,13.3261 33.5919,13.2161 33.6619,13.1061 C33.7319,13.0061 33.7919,12.8861 33.8419,12.7661 C33.8919,12.6461 33.9319,12.5161 33.9619,12.3861 C33.9819,12.2661 34.0019,12.1261 34.0019,11.9961 C34.0019,11.8661 33.9819,11.7361 33.9619,11.6061 C33.9319,11.4761 33.8919,11.3561 33.8419,11.2361 C33.7919,11.1161 33.7319,10.9961 33.6619,10.8861 C33.5919,10.7761 33.5019,10.6761 33.4119,10.5861 C32.6719,9.8461 31.3319,9.8461 30.5819,10.5861 C30.4919,10.6761 30.4119,10.7761 30.3319,10.8861 C30.2619,10.9961 30.2019,11.1161 30.1519,11.2361 C30.1019,11.3561 30.0619,11.4761 30.0419,11.6061 C30.0119,11.7361 30.0019,11.8661 30.0019,11.9961 C30.0019,12.1261 30.0119,12.2661 30.0419,12.3861 C30.0619,12.5161 30.1019,12.6461 30.1519,12.7661" id="Fill-5" fill="#2AB0C9"></path>
                <mask id="mask-2" fill="white">
                    <use xlink:href="#path-1"></use>
                </mask>
                <g id="Clip-8"></g>
                <path d="M75.3335,86.6665 C61.7315,86.6665 50.6665,75.6015 50.6665,61.9995 C50.6665,48.3985 61.7315,37.3335 75.3335,37.3335 C88.9345,37.3335 100.0005,48.3985 100.0005,61.9995 C100.0005,75.6015 88.9345,86.6665 75.3335,86.6665 L75.3335,86.6665 Z M4.0005,73.3335 L4.0005,23.9995 L86.6665,23.9995 L86.6665,35.6735 C83.1875,34.1705 79.3575,33.3335 75.3335,33.3335 C59.5265,33.3335 46.6665,46.1935 46.6665,61.9995 C46.6665,66.0235 47.5035,69.8545 49.0065,73.3335 L4.0005,73.3335 Z M3.9995,19.9995 L86.6665,19.9995 L86.6665,3.9995 L3.9995,3.9995 L3.9995,19.9995 Z M90.6665,37.7975 L90.6665,1.9995 C90.6665,0.8955 89.7715,-0.0005 88.6665,-0.0005 L2.0005,-0.0005 C0.8955,-0.0005 0.0005,0.8955 0.0005,1.9995 L0.0005,75.3335 C0.0005,76.4375 0.8955,77.3335 2.0005,77.3335 L51.1305,77.3335 C56.2205,85.3395 65.1645,90.6665 75.3335,90.6665 C91.1405,90.6665 104.0005,77.8075 104.0005,61.9995 C104.0005,51.8305 98.6725,42.8875 90.6665,37.7975 L90.6665,37.7975 Z" id="Fill-7" fill="#2AB0C9" mask="url(#mask-2)"></path>
                <path d="M86.7476,50.5859 C85.9676,49.8049 84.6996,49.8049 83.9196,50.5859 L75.3336,59.1719 L66.7476,50.5859 C65.9676,49.8049 64.6996,49.8049 63.9196,50.5859 C63.1386,51.3669 63.1386,52.6329 63.9196,53.4149 L72.5046,61.9999 L63.9196,70.5859 C63.1386,71.3669 63.1386,72.6329 63.9196,73.4149 C64.3096,73.8049 64.8216,73.9999 65.3336,73.9999 C65.8456,73.9999 66.3576,73.8049 66.7476,73.4149 L75.3336,64.8289 L83.9196,73.4149 C84.3096,73.8049 84.8216,73.9999 85.3336,73.9999 C85.8456,73.9999 86.3576,73.8049 86.7476,73.4149 C87.5286,72.6329 87.5286,71.3669 86.7476,70.5859 L78.1626,61.9999 L86.7476,53.4149 C87.5286,52.6329 87.5286,51.3669 86.7476,50.5859" id="Fill-10" fill="#2AB0C9" mask="url(#mask-2)"></path>
            </g>
        </g>
    </g>
</svg>