<?xml version="1.0" encoding="UTF-8" standalone="no"?>
<svg width="20px" height="22px" viewBox="0 0 20 22" version="1.1" xmlns="http://www.w3.org/2000/svg" xmlns:xlink="http://www.w3.org/1999/xlink">
    <!-- Generator: sketchtool 41.2 (35397) - http://www.bohemiancoding.com/sketch -->
    <title>B24891CD-363F-4FA4-8D4D-34BA9E0A675E</title>
    <desc>Created with sketchtool.</desc>
    <defs></defs>
    <g id="Symbols" stroke="none" stroke-width="1" fill="none" fill-rule="evenodd">
        <g id="icon-/-switch" transform="translate(-2.000000, -1.000000)" fill="#27A5BC">
            <g id="Page-1">
                <g transform="translate(2.000000, 1.000000)">
                    <path d="M19.494,12.2278 C19.123,11.7548 18.439,11.6758 17.969,12.0468 L15.028,14.3608 C14.908,14.4538 14.763,14.5038 14.61,14.5038 L7.626,14.5038 C7.252,14.5038 6.951,14.2028 6.951,13.8288 C6.951,13.4558 7.252,13.1518 7.626,13.1518 L11.727,13.1518 C12.328,13.1518 12.813,12.6668 12.813,12.0678 C12.813,11.4668 12.328,10.9818 11.727,10.9818 L6.069,10.9818 C5.154,10.9818 4.27,11.3288 3.601,11.9578 L0.704,14.6798 C0.253,15.1388 0,15.7578 0,16.4028 L0,20.2888 C0,20.7608 0.283,21.1888 0.717,21.3728 C1.154,21.5568 1.656,21.4618 1.996,21.1328 L5.489,17.7358 C5.615,17.6138 5.784,17.5438 5.962,17.5438 L14.117,17.5438 C14.351,17.5438 14.587,17.4688 14.788,17.3128 L19.313,13.7538 C19.783,13.3818 19.866,12.6988 19.494,12.2278" id="Fill-1"></path>
                    <path d="M11.8555,1 C14.0615,1 15.8555,2.794 15.8555,5 C15.8555,7.206 14.0615,9 11.8555,9 C9.6495,9 7.8555,7.206 7.8555,5 C7.8555,2.794 9.6495,1 11.8555,1 M11.8555,10 C14.6165,10 16.8555,7.761 16.8555,5 C16.8555,2.239 14.6165,0 11.8555,0 C9.0945,0 6.8555,2.239 6.8555,5 C6.8555,7.761 9.0945,10 11.8555,10" id="Fill-4"></path>
                    <path d="M15.0479,5.0698 C15.0479,4.7938 14.8239,4.5698 14.5479,4.5698 L12.2859,4.5698 L12.2859,2.3338 C12.2859,2.0568 12.0619,1.8338 11.7859,1.8338 C11.5089,1.8338 11.2859,2.0568 11.2859,2.3338 L11.2859,5.5698 L14.5479,5.5698 C14.8239,5.5698 15.0479,5.3458 15.0479,5.0698" id="Fill-7"></path>
                </g>
            </g>
        </g>
    </g>
</svg>