<?xml version="1.0" encoding="UTF-8"?>
<!DOCTYPE svg PUBLIC "-//W3C//DTD SVG 1.1//EN" "http://www.w3.org/Graphics/SVG/1.1/DTD/svg11.dtd">
<svg xmlns="http://www.w3.org/2000/svg" xmlns:xlink="http://www.w3.org/1999/xlink" version="1.1" width="24" height="24" viewBox="0 0 24 24">
  <path d="M2,5.27L3.28,4L20,20.72L18.73,22L15.65,18.92C14.5,19.3 13.28,19.5 12,19.5C7,19.5 2.73,16.39 1,12C1.69,10.24 2.79,8.69 4.19,7.46L2,5.27M12,9A3,3 0 0,1 15,12C15,12.35 14.94,12.69 14.83,13L11,9.17C11.31,9.06 11.65,9 12,9M3.93,12C5.5,14.97 8.58,16.83 12,16.83C12.5,16.83 13,16.79 13.45,16.72L11.72,15C10.29,14.85 9.15,13.71 9,12.28L6.07,9.34C5.21,10.07 4.5,10.97 3.93,12M20.07,12C18.5,9.03 15.42,7.17 12,7.17C11.09,7.17 10.21,7.3 9.37,7.55L7.3,5.47C8.74,4.85 10.33,4.5 12,4.5C17,4.5 21.27,7.61 23,12C22.18,14.08 20.79,15.88 19,17.19L17.11,15.29C18.33,14.46 19.35,13.35 20.07,12Z" />
</svg>
