<?xml version="1.0" encoding="UTF-8" standalone="no"?>
<svg width="20px" height="17px" viewBox="0 0 20 17" version="1.1" xmlns="http://www.w3.org/2000/svg" xmlns:xlink="http://www.w3.org/1999/xlink">
    <!-- Generator: sketchtool 41.2 (35397) - http://www.bohemiancoding.com/sketch -->
    <title>D6D817BE-6FC7-42FA-AEE2-FFF3718AF744</title>
    <desc>Created with sketchtool.</desc>
    <defs></defs>
    <g id="Symbols" stroke="none" stroke-width="1" fill-rule="evenodd">
        <g id="icon-/-schedule-active" transform="translate(-2.000000, -3.000000)">
            <g id="Page-1">
                <path d="M15.8,11.4037 L18.333,11.4037 L18.333,9.1907 L15.8,9.1907 L15.8,11.4037 Z M15.8,15.8307 L18.333,15.8307 L18.333,13.6177 L15.8,13.6177 L15.8,15.8307 Z M10.734,11.4037 L13.267,11.4037 L13.267,9.1907 L10.734,9.1907 L10.734,11.4037 Z M10.734,15.8307 L13.267,15.8307 L13.267,13.6177 L10.734,13.6177 L10.734,15.8307 Z M5.667,11.4037 L8.2,11.4037 L8.2,9.1907 L5.667,9.1907 L5.667,11.4037 Z M5.667,15.8307 L8.2,15.8307 L8.2,13.6177 L5.667,13.6177 L5.667,15.8307 Z M21.281,4.7537 L17.566,4.7537 L17.566,3.4997 C17.566,3.2237 17.343,2.9997 17.066,2.9997 C16.79,2.9997 16.566,3.2237 16.566,3.4997 L16.566,4.7537 L7.434,4.7537 L7.434,3.4997 C7.434,3.2237 7.21,2.9997 6.934,2.9997 C6.657,2.9997 6.434,3.2237 6.434,3.4997 L6.434,4.7537 L2.719,4.7537 C2.322,4.7537 2,5.0757 2,5.4727 L2,19.1787 C2,19.5757 2.322,19.8977 2.719,19.8977 L21.281,19.8977 C21.678,19.8977 22,19.5757 22,19.1787 L22,5.4727 C22,5.0757 21.678,4.7537 21.281,4.7537 L21.281,4.7537 Z"></path>
            </g>
        </g>
    </g>
</svg>
