<?xml version="1.0" encoding="UTF-8" standalone="no"?>
<svg width="17px" height="19px" viewBox="0 0 17 19" version="1.1" xmlns="http://www.w3.org/2000/svg" xmlns:xlink="http://www.w3.org/1999/xlink">
    <!-- Generator: sketchtool 41.2 (35397) - http://www.bohemiancoding.com/sketch -->
    <title>1D203A76-213B-4C49-94F1-06E8482E9BEF</title>
    <desc>Created with sketchtool.</desc>
    <defs></defs>
    <g id="Symbols" stroke="none" stroke-width="1" fill-rule="evenodd">
        <g id="icon-/-contact-us" transform="translate(-4.000000, -3.000000)">
            <g id="Page-1">
                <g transform="translate(4.000000, 3.000000)">
                    <g id="Group-2">
                        <path d="M1.5264,8.2002 C1.2364,8.2002 1.0004,8.4602 1.0004,8.7792 L1.0004,12.0212 C1.0004,12.3402 1.2364,12.6002 1.5264,12.6002 L3.4284,12.6002 L3.4284,8.2002 L1.5264,8.2002 Z M3.9284,13.6002 L1.5264,13.6002 C0.6844,13.6002 0.0004,12.8912 0.0004,12.0212 L0.0004,8.7792 C0.0004,7.9082 0.6844,7.2002 1.5264,7.2002 L3.9284,7.2002 C4.2054,7.2002 4.4284,7.4242 4.4284,7.7002 L4.4284,13.1002 C4.4284,13.3762 4.2054,13.6002 3.9284,13.6002 L3.9284,13.6002 Z" id="Fill-1"></path>
                        <path d="M13.5713,12.6001 L15.4713,12.6001 C15.7623,12.6001 16.0003,12.3401 16.0003,12.0211 L16.0003,8.7791 C16.0003,8.4601 15.7623,8.2001 15.4713,8.2001 L13.5713,8.2001 L13.5713,12.6001 Z M15.4713,13.6001 L13.0713,13.6001 C12.7953,13.6001 12.5713,13.3761 12.5713,13.1001 L12.5713,7.7001 C12.5713,7.4241 12.7953,7.2001 13.0713,7.2001 L15.4713,7.2001 C16.3143,7.2001 17.0003,7.9081 17.0003,8.7791 L17.0003,12.0211 C17.0003,12.8921 16.3143,13.6001 15.4713,13.6001 L15.4713,13.6001 Z" id="Fill-3"></path>
                        <path d="M14.7139,7.7002 L13.7139,7.7002 L13.7139,6.5002 C13.7139,3.3642 11.5959,1.0002 8.7859,1.0002 L8.2139,1.0002 C5.4039,1.0002 3.2859,3.3642 3.2859,6.5002 L3.2859,7.7002 L2.2859,7.7002 L2.2859,6.5002 C2.2859,2.7942 4.8349,0.0002 8.2139,0.0002 L8.7859,0.0002 C12.1649,0.0002 14.7139,2.7942 14.7139,6.5002 L14.7139,7.7002 Z" id="Fill-6"></path>
                        <path d="M8.5,16.6001 C8.146,16.6001 7.857,16.9141 7.857,17.3001 C7.857,17.6861 8.146,18.0001 8.5,18.0001 L9.643,18.0001 C9.997,18.0001 10.286,17.6861 10.286,17.3001 C10.286,16.9141 9.997,16.6001 9.643,16.6001 L8.5,16.6001 Z M9.643,19.0001 L8.5,19.0001 C7.595,19.0001 6.857,18.2371 6.857,17.3001 C6.857,16.3631 7.595,15.6001 8.5,15.6001 L9.643,15.6001 C10.549,15.6001 11.286,16.3631 11.286,17.3001 C11.286,18.2371 10.549,19.0001 9.643,19.0001 L9.643,19.0001 Z" id="Fill-8"></path>
                        <path d="M10.7841,16.7998 C11.0841,16.7968 13.7141,16.6688 13.7141,13.0998 L14.7141,13.0998 C14.7141,17.7458 10.8251,17.7998 10.7861,17.7998 L10.7841,16.7998 Z" id="Fill-11"></path>
                    </g>
                </g>
            </g>
        </g>
    </g>
</svg>
