<?xml version="1.0" encoding="UTF-8" standalone="no"?>
<svg width="21px" height="21px" viewBox="0 0 21 21" version="1.1" xmlns="http://www.w3.org/2000/svg" xmlns:xlink="http://www.w3.org/1999/xlink">
    <!-- Generator: sketchtool 41.2 (35397) - http://www.bohemiancoding.com/sketch -->
    <title>ACA04CBD-E605-42AC-8F50-7EB5C0731C50</title>
    <desc>Created with sketchtool.</desc>
    <defs></defs>
    <g id="Symbols" stroke="none" stroke-width="1" fill-rule="evenodd">
        <g id="icon-/-search-normal" transform="translate(-2.000000, -2.000000)">
            <g id="Page-1">
                <g transform="translate(2.000000, 2.000000)">
                    <g id="Group-2">
                        <g id="Group-3">
                            <g id="Group-4">
                                <path d="M19.1948,20.2602 L12.1748,13.1072 C11.9818,12.9102 11.9848,12.5942 12.1808,12.4002 C12.3798,12.2072 12.6958,12.2102 12.8878,12.4072 L19.9068,19.5602 C20.1008,19.7572 20.0978,20.0742 19.9018,20.2672 C19.8038,20.3622 19.6768,20.4102 19.5508,20.4102 C19.4208,20.4102 19.2918,20.3602 19.1948,20.2602 Z" id="Fill-4"></path>
                                <path d="M7.54,1 C3.934,1 1,3.994 1,7.674 C1,11.354 3.934,14.347 7.54,14.347 C11.146,14.347 14.081,11.354 14.081,7.674 C14.081,3.994 11.146,1 7.54,1 M7.54,15.347 C3.383,15.347 0,11.905 0,7.674 C0,3.442 3.383,-8.8817842e-16 7.54,-8.8817842e-16 C11.698,-8.8817842e-16 15.081,3.442 15.081,7.674 C15.081,11.905 11.698,15.347 7.54,15.347" id="Fill-1"></path>
                            </g>
                        </g>
                    </g>
                </g>
            </g>
        </g>
    </g>
</svg>
