<?xml version="1.0" encoding="UTF-8" standalone="no"?>
<svg width="20px" height="16px" viewBox="0 0 20 16" version="1.1" xmlns="http://www.w3.org/2000/svg" xmlns:xlink="http://www.w3.org/1999/xlink">
    <!-- Generator: sketchtool 41.2 (35397) - http://www.bohemiancoding.com/sketch -->
    <title>920B6826-2CC4-4480-8BF1-F348ECBE3146</title>
    <desc>Created with sketchtool.</desc>
    <defs>
        <path d="M2,6 C2,4.8954305 2.89821238,4 3.99079514,4 L20.0092049,4 C21.1086907,4 22,4.88772964 22,6 C22,7.1045695 21.1017876,8 20.0092049,8 L3.99079514,8 C2.89130934,8 2,7.11227036 2,6 Z M2,12 C2,10.8954305 2.89821238,10 3.99079514,10 L20.0092049,10 C21.1086907,10 22,10.8877296 22,12 C22,13.1045695 21.1017876,14 20.0092049,14 L3.99079514,14 C2.89130934,14 2,13.1122704 2,12 Z M2,18 C2,16.8954305 2.89821238,16 3.99079514,16 L20.0092049,16 C21.1086907,16 22,16.8877296 22,18 C22,19.1045695 21.1017876,20 20.0092049,20 L3.99079514,20 C2.89130934,20 2,19.1122704 2,18 Z" id="path-1"></path>
        <mask id="mask-2" maskContentUnits="userSpaceOnUse" maskUnits="objectBoundingBox" x="0" y="0" width="20" height="16" fill="white">
            <use xlink:href="#path-1"></use>
        </mask>
    </defs>
    <g id="Symbols" stroke="none" stroke-width="1" fill-rule="evenodd">
        <g id="stroke-lines" transform="translate(-2.000000, -4.000000)" stroke-width="2">
            <g id="Combined-Shape">
                <use mask="url(#mask-2)" xlink:href="#path-1"></use>
            </g>
        </g>
    </g>
</svg>
