<?xml version="1.0" encoding="UTF-8"?>
<!DOCTYPE svg PUBLIC "-//W3C//DTD SVG 1.1//EN" "http://www.w3.org/Graphics/SVG/1.1/DTD/svg11.dtd">
<svg xmlns="http://www.w3.org/2000/svg" xmlns:xlink="http://www.w3.org/1999/xlink" version="1.1" width="24" height="24" viewBox="0 0 20 19">
  <path d="M10,13.2051 C8.813,13.2051 7.752,12.5381 7.708,12.5101 C6.656,11.9281 5.795,10.8701 5.331,9.5891 C4.356,9.3481 4.017,8.1821 4.017,7.6171 C4.012,6.4461 4.502,6.0051 4.943,5.8451 L4.943,3.3771 C4.943,2.2471 5.972,0.5751 8.179,0.5751 C8.455,0.5751 8.679,0.7991 8.679,1.0751 C8.679,1.3511 8.455,1.5751 8.179,1.5751 C6.506,1.5751 5.943,2.8131 5.943,3.3771 L5.943,6.7531 L5.447,6.7581 C5.285,6.7591 5.013,6.7621 5.017,7.5861 C5.017,7.6271 5.123,8.6341 5.705,8.6341 L6.075,8.6341 L6.184,8.9881 C6.541,10.1611 7.283,11.1321 8.219,11.6511 C8.253,11.6711 9.109,12.2051 10,12.2051 C10.847,12.2051 11.441,11.7141 11.447,11.7091 L11.531,11.6511 C12.467,11.1321 13.209,10.1611 13.565,8.9871 L13.672,8.6371 L14.039,8.6331 C14.619,8.6261 14.725,7.6271 14.725,7.6171 C14.729,6.7661 14.46,6.7621 14.299,6.7591 L13.807,6.7511 L13.807,3.3771 C13.807,1.9551 12.467,1.5751 11.675,1.5751 C11.398,1.5751 11.175,1.3511 11.175,1.0751 C11.175,0.7991 11.398,0.5751 11.675,0.5751 C13.184,0.5751 14.807,1.4521 14.807,3.3771 L14.807,5.8491 C15.244,6.0091 15.729,6.4461 15.725,7.5901 C15.725,8.1741 15.388,9.3361 14.42,9.5851 C13.962,10.8521 13.113,11.9031 12.054,12.5041 C11.861,12.6541 11.082,13.2051 10,13.2051 L10,13.2051 Z" id="Fill-1"></path>
  <path d="M20,18.2666 L0,18.2666 L0,16.6156 C0,16.5856 0.047,13.6456 4.093,12.9566 C6.874,12.4836 6.857,12.0796 6.847,11.8106 L6.843,11.6586 L7.843,11.6586 L7.846,11.7696 C7.89,12.8216 7.363,13.4146 4.261,13.9426 C1.076,14.4846 1.002,16.5336 1,16.6206 L1,17.2666 L19,17.2666 L19,16.6156 C18.998,16.5366 18.913,14.5306 15.483,13.9426 C12.471,13.4266 11.882,12.6376 11.908,11.5296 L12.91,11.4356 L12.908,11.5536 C12.899,11.9236 12.886,12.4836 15.651,12.9566 C19.95,13.6936 20,16.4966 20,16.6156 L20,18.2666 Z" id="Fill-3"></path>
  <polygon id="Fill-5" points="9.5 17.7666 10.5 17.7666 10.5 12.5866 9.5 12.5866"></polygon>
  <path d="M6.834,16.9712 C6.558,16.9712 6.334,16.7472 6.334,16.4712 L6.334,14.4482 C6.334,14.1712 6.558,13.9482 6.834,13.9482 C7.11,13.9482 7.334,14.1712 7.334,14.4482 L7.334,16.4712 C7.334,16.7472 7.11,16.9712 6.834,16.9712" id="Fill-7"></path>
  <path d="M7.9414,15.9653 L5.7344,15.9653 C5.4584,15.9653 5.2344,15.7413 5.2344,15.4653 C5.2344,15.1893 5.4584,14.9653 5.7344,14.9653 L7.9414,14.9653 C8.2174,14.9653 8.4414,15.1893 8.4414,15.4653 C8.4414,15.7413 8.2174,15.9653 7.9414,15.9653" id="Fill-8"></path>
  <path d="M12.5508,15.3892 L12.5328,15.3892 C12.2568,15.3892 12.0328,15.1652 12.0328,14.8892 C12.0328,14.6132 12.2568,14.3892 12.5328,14.3892 C12.8098,14.3892 13.0418,14.6132 13.0418,14.8892 C13.0418,15.1652 12.8268,15.3892 12.5508,15.3892" id="Fill-9"></path>
  <path d="M10.0166,3.3022 L9.9996,3.3022 C9.7236,3.3022 9.4996,3.0782 9.4996,2.8022 C9.4996,2.5262 9.7236,2.3022 9.9996,2.3022 C10.2766,2.3022 10.5086,2.5262 10.5086,2.8022 C10.5086,3.0782 10.2926,3.3022 10.0166,3.3022" id="Fill-10"></path>
  <path d="M5.707,9.6333 C5.544,9.6333 5.383,9.5533 5.287,9.4063 C5.137,9.1753 5.201,8.8663 5.433,8.7153 C5.509,8.6653 7.348,7.4823 10,7.4823 C12.671,7.4823 14.279,8.6843 14.347,8.7353 C14.566,8.9023 14.608,9.2143 14.442,9.4333 C14.276,9.6533 13.966,9.6973 13.742,9.5313 C13.728,9.5213 12.316,8.4823 10,8.4823 C7.658,8.4823 5.995,9.5423 5.978,9.5523 C5.894,9.6073 5.801,9.6333 5.707,9.6333" id="Fill-11"></path>
  <path d="M10,1 C8.878,1 7.966,1.809 7.966,2.802 C7.966,3.796 8.878,4.604 10,4.604 C11.121,4.604 12.033,3.796 12.033,2.802 C12.033,1.809 11.121,1 10,1 M10,5.604 C8.327,5.604 6.966,4.347 6.966,2.802 C6.966,1.257 8.327,0 10,0 C11.673,0 13.033,1.257 13.033,2.802 C13.033,4.347 11.673,5.604 10,5.604" id="Fill-12"></path>
  <path d="M5.4434,5.8105 C5.2604,5.8105 5.0844,5.7095 4.9964,5.5345 C4.8734,5.2875 4.9724,4.9865 5.2194,4.8635 L7.6724,3.6365 C7.9164,3.5145 8.2184,3.6125 8.3424,3.8605 C8.4654,4.1075 8.3664,4.4075 8.1194,4.5315 L5.6674,5.7575 C5.5954,5.7935 5.5184,5.8105 5.4434,5.8105" id="Fill-13"></path>
  <path d="M14.3066,5.6045 C14.2366,5.6045 14.1636,5.5895 14.0966,5.5585 L11.8956,4.5375 C11.6446,4.4215 11.5356,4.1245 11.6516,3.8735 C11.7676,3.6235 12.0666,3.5135 12.3156,3.6305 L14.5166,4.6505 C14.7676,4.7675 14.8756,5.0645 14.7606,5.3145 C14.6756,5.4975 14.4946,5.6045 14.3066,5.6045" id="Fill-14"></path>
</svg>
